<svg width="410" height="52" viewBox="0 0 410 52" fill="none" xmlns="http://www.w3.org/2000/svg">
<path d="M17.864 38.336C14.728 38.336 11.848 37.6 9.224 36.128C6.6 34.656 4.52 32.624 2.984 30.032C1.448 27.408 0.68 24.448 0.68 21.152C0.68 17.888 1.448 14.96 2.984 12.368C4.52 9.744 6.6 7.696 9.224 6.224C11.848 4.752 14.728 4.016 17.864 4.016C21.032 4.016 23.912 4.752 26.504 6.224C29.128 7.696 31.192 9.744 32.696 12.368C34.232 14.96 35 17.888 35 21.152C35 24.448 34.232 27.408 32.696 30.032C31.192 32.624 29.128 34.656 26.504 36.128C23.88 37.6 21 38.336 17.864 38.336ZM17.864 32.336C19.88 32.336 21.656 31.888 23.192 30.992C24.728 30.064 25.928 28.752 26.792 27.056C27.656 25.36 28.088 23.392 28.088 21.152C28.088 18.912 27.656 16.96 26.792 15.296C25.928 13.6 24.728 12.304 23.192 11.408C21.656 10.512 19.88 10.064 17.864 10.064C15.848 10.064 14.056 10.512 12.488 11.408C10.952 12.304 9.752 13.6 8.888 15.296C8.024 16.96 7.592 18.912 7.592 21.152C7.592 23.392 8.024 25.36 8.888 27.056C9.752 28.752 10.952 30.064 12.488 30.992C14.056 31.888 15.848 32.336 17.864 32.336ZM65.1035 11.408V38H58.3355V34.64C57.4715 35.792 56.3355 36.704 54.9275 37.376C53.5515 38.016 52.0475 38.336 50.4155 38.336C48.3355 38.336 46.4955 37.904 44.8955 37.04C43.2955 36.144 42.0315 34.848 41.1035 33.152C40.2075 31.424 39.7595 29.376 39.7595 27.008V11.408H46.4795V26.048C46.4795 28.16 47.0075 29.792 48.0635 30.944C49.1195 32.064 50.5595 32.624 52.3835 32.624C54.2395 32.624 55.6955 32.064 56.7515 30.944C57.8075 29.792 58.3355 28.16 58.3355 26.048V11.408H65.1035ZM78.4539 15.536C79.3179 14.128 80.4379 13.024 81.8139 12.224C83.2219 11.424 84.8219 11.024 86.6139 11.024V18.08H84.8379C82.7259 18.08 81.1259 18.576 80.0379 19.568C78.9819 20.56 78.4539 22.288 78.4539 24.752V38H71.7339V11.408H78.4539V15.536ZM127.01 14.864C127.01 16.656 126.578 18.336 125.714 19.904C124.882 21.472 123.554 22.736 121.73 23.696C119.938 24.656 117.666 25.136 114.914 25.136H109.298V38H102.578V4.496H114.914C117.506 4.496 119.714 4.944 121.538 5.84C123.362 6.736 124.722 7.968 125.618 9.536C126.546 11.104 127.01 12.88 127.01 14.864ZM114.626 19.712C116.482 19.712 117.858 19.296 118.754 18.464C119.65 17.6 120.098 16.4 120.098 14.864C120.098 11.6 118.274 9.968 114.626 9.968H109.298V19.712H114.626ZM138.501 15.536C139.365 14.128 140.485 13.024 141.861 12.224C143.269 11.424 144.869 11.024 146.661 11.024V18.08H144.885C142.773 18.08 141.173 18.576 140.085 19.568C139.029 20.56 138.501 22.288 138.501 24.752V38H131.781V11.408H138.501V15.536ZM154.595 8.24C153.411 8.24 152.419 7.872 151.619 7.136C150.851 6.368 150.467 5.424 150.467 4.304C150.467 3.184 150.851 2.256 151.619 1.52C152.419 0.751998 153.411 0.367998 154.595 0.367998C155.779 0.367998 156.755 0.751998 157.523 1.52C158.323 2.256 158.723 3.184 158.723 4.304C158.723 5.424 158.323 6.368 157.523 7.136C156.755 7.872 155.779 8.24 154.595 8.24ZM157.907 11.408V38H151.187V11.408H157.907ZM162.818 24.704C162.818 21.952 163.378 19.552 164.498 17.504C165.618 15.424 167.17 13.824 169.154 12.704C171.138 11.552 173.41 10.976 175.97 10.976C179.266 10.976 181.986 11.808 184.13 13.472C186.306 15.104 187.762 17.408 188.498 20.384H181.25C180.866 19.232 180.21 18.336 179.282 17.696C178.386 17.024 177.266 16.688 175.922 16.688C174.002 16.688 172.482 17.392 171.362 18.8C170.242 20.176 169.682 22.144 169.682 24.704C169.682 27.232 170.242 29.2 171.362 30.608C172.482 31.984 174.002 32.672 175.922 32.672C178.642 32.672 180.418 31.456 181.25 29.024H188.498C187.762 31.904 186.306 34.192 184.13 35.888C181.954 37.584 179.234 38.432 175.97 38.432C173.41 38.432 171.138 37.872 169.154 36.752C167.17 35.6 165.618 34 164.498 31.952C163.378 29.872 162.818 27.456 162.818 24.704ZM196.829 8.24C195.645 8.24 194.653 7.872 193.853 7.136C193.085 6.368 192.701 5.424 192.701 4.304C192.701 3.184 193.085 2.256 193.853 1.52C194.653 0.751998 195.645 0.367998 196.829 0.367998C198.013 0.367998 198.989 0.751998 199.757 1.52C200.557 2.256 200.957 3.184 200.957 4.304C200.957 5.424 200.557 6.368 199.757 7.136C198.989 7.872 198.013 8.24 196.829 8.24ZM200.141 11.408V38H193.421V11.408H200.141ZM221.517 11.024C224.685 11.024 227.245 12.032 229.197 14.048C231.149 16.032 232.125 18.816 232.125 22.4V38H225.405V23.312C225.405 21.2 224.877 19.584 223.821 18.464C222.765 17.312 221.325 16.736 219.501 16.736C217.645 16.736 216.173 17.312 215.085 18.464C214.029 19.584 213.501 21.2 213.501 23.312V38H206.781V11.408H213.501V14.72C214.397 13.568 215.533 12.672 216.909 12.032C218.317 11.36 219.853 11.024 221.517 11.024ZM248.931 10.976C250.915 10.976 252.659 11.376 254.163 12.176C255.667 12.944 256.851 13.952 257.715 15.2V11.408H264.483V38.192C264.483 40.656 263.987 42.848 262.995 44.768C262.003 46.72 260.515 48.256 258.531 49.376C256.547 50.528 254.147 51.104 251.331 51.104C247.555 51.104 244.451 50.224 242.019 48.464C239.619 46.704 238.259 44.304 237.939 41.264H244.611C244.963 42.48 245.715 43.44 246.867 44.144C248.051 44.88 249.475 45.248 251.139 45.248C253.091 45.248 254.675 44.656 255.891 43.472C257.107 42.32 257.715 40.56 257.715 38.192V34.064C256.851 35.312 255.651 36.352 254.115 37.184C252.611 38.016 250.883 38.432 248.931 38.432C246.691 38.432 244.643 37.856 242.787 36.704C240.931 35.552 239.459 33.936 238.371 31.856C237.315 29.744 236.787 27.328 236.787 24.608C236.787 21.92 237.315 19.536 238.371 17.456C239.459 15.376 240.915 13.776 242.739 12.656C244.595 11.536 246.659 10.976 248.931 10.976ZM257.715 24.704C257.715 23.072 257.395 21.68 256.755 20.528C256.115 19.344 255.251 18.448 254.163 17.84C253.075 17.2 251.907 16.88 250.659 16.88C249.411 16.88 248.259 17.184 247.203 17.792C246.147 18.4 245.283 19.296 244.611 20.48C243.971 21.632 243.651 23.008 243.651 24.608C243.651 26.208 243.971 27.616 244.611 28.832C245.283 30.016 246.147 30.928 247.203 31.568C248.291 32.208 249.443 32.528 250.659 32.528C251.907 32.528 253.075 32.224 254.163 31.616C255.251 30.976 256.115 30.08 256.755 28.928C257.395 27.744 257.715 26.336 257.715 24.704ZM306.916 14.864C306.916 16.656 306.484 18.336 305.62 19.904C304.788 21.472 303.46 22.736 301.636 23.696C299.844 24.656 297.572 25.136 294.82 25.136H289.204V38H282.484V4.496H294.82C297.412 4.496 299.62 4.944 301.444 5.84C303.268 6.736 304.628 7.968 305.524 9.536C306.452 11.104 306.916 12.88 306.916 14.864ZM294.532 19.712C296.388 19.712 297.764 19.296 298.66 18.464C299.556 17.6 300.004 16.4 300.004 14.864C300.004 11.6 298.18 9.968 294.532 9.968H289.204V19.712H294.532ZM318.407 2.48V38H311.687V2.48H318.407ZM323.318 24.608C323.318 21.92 323.846 19.536 324.902 17.456C325.99 15.376 327.446 13.776 329.27 12.656C331.126 11.536 333.19 10.976 335.462 10.976C337.446 10.976 339.174 11.376 340.646 12.176C342.15 12.976 343.35 13.984 344.246 15.2V11.408H351.014V38H344.246V34.112C343.382 35.36 342.182 36.4 340.646 37.232C339.142 38.032 337.398 38.432 335.414 38.432C333.174 38.432 331.126 37.856 329.27 36.704C327.446 35.552 325.99 33.936 324.902 31.856C323.846 29.744 323.318 27.328 323.318 24.608ZM344.246 24.704C344.246 23.072 343.926 21.68 343.286 20.528C342.646 19.344 341.782 18.448 340.694 17.84C339.606 17.2 338.438 16.88 337.19 16.88C335.942 16.88 334.79 17.184 333.734 17.792C332.678 18.4 331.814 19.296 331.142 20.48C330.502 21.632 330.182 23.008 330.182 24.608C330.182 26.208 330.502 27.616 331.142 28.832C331.814 30.016 332.678 30.928 333.734 31.568C334.822 32.208 335.974 32.528 337.19 32.528C338.438 32.528 339.606 32.224 340.694 31.616C341.782 30.976 342.646 30.08 343.286 28.928C343.926 27.744 344.246 26.336 344.246 24.704ZM372.314 11.024C375.482 11.024 378.042 12.032 379.994 14.048C381.946 16.032 382.922 18.816 382.922 22.4V38H376.202V23.312C376.202 21.2 375.674 19.584 374.618 18.464C373.562 17.312 372.122 16.736 370.298 16.736C368.442 16.736 366.97 17.312 365.882 18.464C364.826 19.584 364.298 21.2 364.298 23.312V38H357.578V11.408H364.298V14.72C365.194 13.568 366.33 12.672 367.706 12.032C369.114 11.36 370.65 11.024 372.314 11.024ZM399.488 38.432C397.312 38.432 395.36 38.048 393.632 37.28C391.904 36.48 390.528 35.408 389.504 34.064C388.512 32.72 387.968 31.232 387.872 29.6H394.64C394.768 30.624 395.264 31.472 396.128 32.144C397.024 32.816 398.128 33.152 399.44 33.152C400.72 33.152 401.712 32.896 402.416 32.384C403.152 31.872 403.52 31.216 403.52 30.416C403.52 29.552 403.072 28.912 402.176 28.496C401.312 28.048 399.92 27.568 398 27.056C396.016 26.576 394.384 26.08 393.104 25.568C391.856 25.056 390.768 24.272 389.84 23.216C388.944 22.16 388.496 20.736 388.496 18.944C388.496 17.472 388.912 16.128 389.744 14.912C390.608 13.696 391.824 12.736 393.392 12.032C394.992 11.328 396.864 10.976 399.008 10.976C402.176 10.976 404.704 11.776 406.592 13.376C408.48 14.944 409.52 17.072 409.712 19.76H403.28C403.184 18.704 402.736 17.872 401.936 17.264C401.168 16.624 400.128 16.304 398.816 16.304C397.6 16.304 396.656 16.528 395.984 16.976C395.344 17.424 395.024 18.048 395.024 18.848C395.024 19.744 395.472 20.432 396.368 20.912C397.264 21.36 398.656 21.824 400.544 22.304C402.464 22.784 404.048 23.28 405.296 23.792C406.544 24.304 407.616 25.104 408.512 26.192C409.44 27.248 409.92 28.656 409.952 30.416C409.952 31.952 409.52 33.328 408.656 34.544C407.824 35.76 406.608 36.72 405.008 37.424C403.44 38.096 401.6 38.432 399.488 38.432Z" fill="#282938"/>
</svg>
